<svg xmlns="http://www.w3.org/2000/svg" viewBox="0 0 960 640" role="img" aria-label="SiteCraft AI template preview">
  <defs>
    <linearGradient id="bg" x1="90" y1="50" x2="850" y2="590" gradientUnits="userSpaceOnUse">
      <stop stop-color="#ECFDF5"/>
      <stop offset=".52" stop-color="#FFFFFF"/>
      <stop offset="1" stop-color="#FFF7ED"/>
    </linearGradient>
    <linearGradient id="bar" x1="120" y1="86" x2="820" y2="86" gradientUnits="userSpaceOnUse">
      <stop stop-color="#10B981"/>
      <stop offset="1" stop-color="#F97316"/>
    </linearGradient>
  </defs>
  <rect width="960" height="640" rx="42" fill="url(#bg)"/>
  <rect x="78" y="70" width="804" height="500" rx="28" fill="#fff" stroke="#D9E7DD" stroke-width="3"/>
  <rect x="112" y="104" width="160" height="16" rx="8" fill="url(#bar)"/>
  <circle cx="786" cy="112" r="10" fill="#10B981" opacity=".35"/>
  <circle cx="818" cy="112" r="10" fill="#F97316" opacity=".35"/>
  <rect x="112" y="166" width="360" height="42" rx="12" fill="#102A1F"/>
  <rect x="112" y="226" width="292" height="16" rx="8" fill="#6B7C73" opacity=".55"/>
  <rect x="112" y="256" width="332" height="16" rx="8" fill="#6B7C73" opacity=".35"/>
  <rect x="112" y="306" width="130" height="42" rx="21" fill="#10B981"/>
  <rect x="262" y="306" width="130" height="42" rx="21" fill="#FFF7ED" stroke="#F97316"/>
  <rect x="548" y="162" width="250" height="210" rx="28" fill="#ECFDF5" stroke="#B9E6D3"/>
  <rect x="586" y="204" width="174" height="22" rx="11" fill="#10B981" opacity=".72"/>
  <rect x="586" y="248" width="132" height="12" rx="6" fill="#335045" opacity=".35"/>
  <rect x="586" y="278" width="150" height="12" rx="6" fill="#335045" opacity=".25"/>
  <rect x="586" y="320" width="96" height="28" rx="14" fill="#F97316" opacity=".82"/>
  <rect x="112" y="424" width="200" height="92" rx="18" fill="#F8FAFC" stroke="#E2E8F0"/>
  <rect x="346" y="424" width="200" height="92" rx="18" fill="#F8FAFC" stroke="#E2E8F0"/>
  <rect x="580" y="424" width="200" height="92" rx="18" fill="#F8FAFC" stroke="#E2E8F0"/>
</svg>
