<svg xmlns="http://www.w3.org/2000/svg" viewBox="0 0 64 64">
  <defs>
    <linearGradient id="sitecraft-icon-gradient" x1="10" y1="8" x2="54" y2="56" gradientUnits="userSpaceOnUse">
      <stop offset="0" stop-color="#10B981"/>
      <stop offset="1" stop-color="#F97316"/>
    </linearGradient>
  </defs>
  <rect width="64" height="64" rx="16" fill="url(#sitecraft-icon-gradient)"/>
  <path d="M32 13.5l3.9 11.7 12.2 3.7-12.2 3.8L32 44.5l-3.9-11.8-12.2-3.8 12.2-3.7L32 13.5z" fill="#fff"/>
  <path d="M47.3 42.2l1.6 4.7 4.8 1.5-4.8 1.5-1.6 4.6-1.5-4.6-4.8-1.5 4.8-1.5 1.5-4.7z" fill="#fff" opacity=".92"/>
  <path d="M17.4 40.4l1.1 3.3 3.4 1-3.4 1.1-1.1 3.3-1.1-3.3-3.4-1.1 3.4-1 1.1-3.3z" fill="#fff" opacity=".82"/>
</svg>
